<mxfile host="app.diagrams.net" modified="2020-04-05T14:00:05.755Z" agent="5.0 (Macintosh; Intel Mac OS X 10_14_6) AppleWebKit/537.36 (KHTML, like Gecko) Chrome/80.0.3987.149 Safari/537.36" etag="lZBvHqeaju0Ja7w-engH" version="12.9.6" type="github">
  <diagram id="8V5dtoAIcNinE1zWuWp3" name="Page-1">
    <mxGraphModel dx="1426" dy="803" grid="1" gridSize="10" guides="1" tooltips="1" connect="1" arrows="1" fold="1" page="1" pageScale="1" pageWidth="827" pageHeight="1169" math="0" shadow="0">
      <root>
        <mxCell id="0" />
        <mxCell id="1" parent="0" />
        <mxCell id="l8kK58O80P4qnYT1HE0h-29" value="" style="rounded=0;whiteSpace=wrap;html=1;fillColor=#d5e8d4;strokeColor=#82b366;" vertex="1" parent="1">
          <mxGeometry x="10" y="10" width="800" height="550" as="geometry" />
        </mxCell>
        <mxCell id="l8kK58O80P4qnYT1HE0h-46" value="" style="group;fillColor=#fff2cc;strokeColor=#d6b656;" vertex="1" connectable="0" parent="1">
          <mxGeometry x="80" y="50" width="640" height="40" as="geometry" />
        </mxCell>
        <mxCell id="l8kK58O80P4qnYT1HE0h-30" value="0" style="whiteSpace=wrap;html=1;aspect=fixed;" vertex="1" parent="l8kK58O80P4qnYT1HE0h-46">
          <mxGeometry width="40" height="40" as="geometry" />
        </mxCell>
        <mxCell id="l8kK58O80P4qnYT1HE0h-31" value="1" style="whiteSpace=wrap;html=1;aspect=fixed;" vertex="1" parent="l8kK58O80P4qnYT1HE0h-46">
          <mxGeometry x="40" width="40" height="40" as="geometry" />
        </mxCell>
        <mxCell id="l8kK58O80P4qnYT1HE0h-32" value="2" style="whiteSpace=wrap;html=1;aspect=fixed;" vertex="1" parent="l8kK58O80P4qnYT1HE0h-46">
          <mxGeometry x="80" width="40" height="40" as="geometry" />
        </mxCell>
        <mxCell id="l8kK58O80P4qnYT1HE0h-33" value="5" style="whiteSpace=wrap;html=1;aspect=fixed;" vertex="1" parent="l8kK58O80P4qnYT1HE0h-46">
          <mxGeometry x="200" width="40" height="40" as="geometry" />
        </mxCell>
        <mxCell id="l8kK58O80P4qnYT1HE0h-34" value="8" style="whiteSpace=wrap;html=1;aspect=fixed;" vertex="1" parent="l8kK58O80P4qnYT1HE0h-46">
          <mxGeometry x="320" width="40" height="40" as="geometry" />
        </mxCell>
        <mxCell id="l8kK58O80P4qnYT1HE0h-35" value="11" style="whiteSpace=wrap;html=1;aspect=fixed;" vertex="1" parent="l8kK58O80P4qnYT1HE0h-46">
          <mxGeometry x="440" width="40" height="40" as="geometry" />
        </mxCell>
        <mxCell id="l8kK58O80P4qnYT1HE0h-36" value="14" style="whiteSpace=wrap;html=1;aspect=fixed;" vertex="1" parent="l8kK58O80P4qnYT1HE0h-46">
          <mxGeometry x="560" width="40" height="40" as="geometry" />
        </mxCell>
        <mxCell id="l8kK58O80P4qnYT1HE0h-37" value="3" style="whiteSpace=wrap;html=1;aspect=fixed;" vertex="1" parent="l8kK58O80P4qnYT1HE0h-46">
          <mxGeometry x="120" width="40" height="40" as="geometry" />
        </mxCell>
        <mxCell id="l8kK58O80P4qnYT1HE0h-38" value="1" style="whiteSpace=wrap;html=1;aspect=fixed;fillColor=#fff2cc;strokeColor=#d6b656;" vertex="1" parent="l8kK58O80P4qnYT1HE0h-46">
          <mxGeometry x="160" width="40" height="40" as="geometry" />
        </mxCell>
        <mxCell id="l8kK58O80P4qnYT1HE0h-39" value="6" style="whiteSpace=wrap;html=1;aspect=fixed;" vertex="1" parent="l8kK58O80P4qnYT1HE0h-46">
          <mxGeometry x="240" width="40" height="40" as="geometry" />
        </mxCell>
        <mxCell id="l8kK58O80P4qnYT1HE0h-40" value="7" style="whiteSpace=wrap;html=1;aspect=fixed;" vertex="1" parent="l8kK58O80P4qnYT1HE0h-46">
          <mxGeometry x="280" width="40" height="40" as="geometry" />
        </mxCell>
        <mxCell id="l8kK58O80P4qnYT1HE0h-41" value="9" style="whiteSpace=wrap;html=1;aspect=fixed;" vertex="1" parent="l8kK58O80P4qnYT1HE0h-46">
          <mxGeometry x="360" width="40" height="40" as="geometry" />
        </mxCell>
        <mxCell id="l8kK58O80P4qnYT1HE0h-42" value="10" style="whiteSpace=wrap;html=1;aspect=fixed;" vertex="1" parent="l8kK58O80P4qnYT1HE0h-46">
          <mxGeometry x="400" width="40" height="40" as="geometry" />
        </mxCell>
        <mxCell id="l8kK58O80P4qnYT1HE0h-43" value="12" style="whiteSpace=wrap;html=1;aspect=fixed;" vertex="1" parent="l8kK58O80P4qnYT1HE0h-46">
          <mxGeometry x="480" width="40" height="40" as="geometry" />
        </mxCell>
        <mxCell id="l8kK58O80P4qnYT1HE0h-44" value="13" style="whiteSpace=wrap;html=1;aspect=fixed;" vertex="1" parent="l8kK58O80P4qnYT1HE0h-46">
          <mxGeometry x="520" width="40" height="40" as="geometry" />
        </mxCell>
        <mxCell id="l8kK58O80P4qnYT1HE0h-45" value="15" style="whiteSpace=wrap;html=1;aspect=fixed;" vertex="1" parent="l8kK58O80P4qnYT1HE0h-46">
          <mxGeometry x="600" width="40" height="40" as="geometry" />
        </mxCell>
        <mxCell id="l8kK58O80P4qnYT1HE0h-84" value="1" style="ellipse;whiteSpace=wrap;html=1;aspect=fixed;fontColor=#FFFFFF;fillColor=#000000;" vertex="1" parent="l8kK58O80P4qnYT1HE0h-46">
          <mxGeometry x="440" width="40" height="40" as="geometry" />
        </mxCell>
        <mxCell id="l8kK58O80P4qnYT1HE0h-47" value="Node&amp;lt;K,V&amp;gt;[] table" style="text;html=1;strokeColor=none;fillColor=none;align=center;verticalAlign=middle;whiteSpace=wrap;rounded=0;fontColor=#FF0000;" vertex="1" parent="1">
          <mxGeometry x="20" y="20" width="120" height="20" as="geometry" />
        </mxCell>
        <mxCell id="l8kK58O80P4qnYT1HE0h-53" style="edgeStyle=orthogonalEdgeStyle;rounded=0;orthogonalLoop=1;jettySize=auto;html=1;exitX=0.5;exitY=1;exitDx=0;exitDy=0;entryX=0.5;entryY=0;entryDx=0;entryDy=0;fontColor=#FF0000;" edge="1" parent="1" source="l8kK58O80P4qnYT1HE0h-48" target="l8kK58O80P4qnYT1HE0h-52">
          <mxGeometry relative="1" as="geometry" />
        </mxCell>
        <mxCell id="l8kK58O80P4qnYT1HE0h-48" value="2" style="whiteSpace=wrap;html=1;aspect=fixed;fillColor=#fff2cc;strokeColor=#d6b656;" vertex="1" parent="1">
          <mxGeometry x="240" y="130" width="40" height="40" as="geometry" />
        </mxCell>
        <mxCell id="l8kK58O80P4qnYT1HE0h-77" value="" style="edgeStyle=orthogonalEdgeStyle;rounded=0;orthogonalLoop=1;jettySize=auto;html=1;fontColor=#000000;" edge="1" parent="1" source="l8kK58O80P4qnYT1HE0h-52" target="l8kK58O80P4qnYT1HE0h-76">
          <mxGeometry relative="1" as="geometry" />
        </mxCell>
        <mxCell id="l8kK58O80P4qnYT1HE0h-52" value="3" style="whiteSpace=wrap;html=1;aspect=fixed;fillColor=#fff2cc;strokeColor=#d6b656;" vertex="1" parent="1">
          <mxGeometry x="240" y="200" width="40" height="40" as="geometry" />
        </mxCell>
        <mxCell id="l8kK58O80P4qnYT1HE0h-79" value="" style="edgeStyle=orthogonalEdgeStyle;rounded=0;orthogonalLoop=1;jettySize=auto;html=1;fontColor=#000000;" edge="1" parent="1" source="l8kK58O80P4qnYT1HE0h-76" target="l8kK58O80P4qnYT1HE0h-78">
          <mxGeometry relative="1" as="geometry" />
        </mxCell>
        <mxCell id="l8kK58O80P4qnYT1HE0h-76" value="4" style="whiteSpace=wrap;html=1;aspect=fixed;fillColor=#fff2cc;strokeColor=#d6b656;" vertex="1" parent="1">
          <mxGeometry x="240" y="270" width="40" height="40" as="geometry" />
        </mxCell>
        <mxCell id="l8kK58O80P4qnYT1HE0h-81" value="" style="edgeStyle=orthogonalEdgeStyle;rounded=0;orthogonalLoop=1;jettySize=auto;html=1;fontColor=#000000;" edge="1" parent="1" source="l8kK58O80P4qnYT1HE0h-78" target="l8kK58O80P4qnYT1HE0h-80">
          <mxGeometry relative="1" as="geometry" />
        </mxCell>
        <mxCell id="l8kK58O80P4qnYT1HE0h-78" value="5" style="whiteSpace=wrap;html=1;aspect=fixed;fillColor=#fff2cc;strokeColor=#d6b656;" vertex="1" parent="1">
          <mxGeometry x="240" y="340" width="40" height="40" as="geometry" />
        </mxCell>
        <mxCell id="l8kK58O80P4qnYT1HE0h-83" value="" style="edgeStyle=orthogonalEdgeStyle;rounded=0;orthogonalLoop=1;jettySize=auto;html=1;fontColor=#000000;" edge="1" parent="1" source="l8kK58O80P4qnYT1HE0h-80" target="l8kK58O80P4qnYT1HE0h-82">
          <mxGeometry relative="1" as="geometry" />
        </mxCell>
        <mxCell id="l8kK58O80P4qnYT1HE0h-80" value="6" style="whiteSpace=wrap;html=1;aspect=fixed;fillColor=#fff2cc;strokeColor=#d6b656;" vertex="1" parent="1">
          <mxGeometry x="240" y="410" width="40" height="40" as="geometry" />
        </mxCell>
        <mxCell id="l8kK58O80P4qnYT1HE0h-82" value="7" style="whiteSpace=wrap;html=1;aspect=fixed;fillColor=#fff2cc;strokeColor=#d6b656;" vertex="1" parent="1">
          <mxGeometry x="240" y="480" width="40" height="40" as="geometry" />
        </mxCell>
        <mxCell id="l8kK58O80P4qnYT1HE0h-63" style="edgeStyle=orthogonalEdgeStyle;rounded=0;orthogonalLoop=1;jettySize=auto;html=1;exitX=0.5;exitY=1;exitDx=0;exitDy=0;entryX=0.5;entryY=0;entryDx=0;entryDy=0;fontColor=#000000;" edge="1" parent="1" source="l8kK58O80P4qnYT1HE0h-84" target="l8kK58O80P4qnYT1HE0h-56">
          <mxGeometry relative="1" as="geometry">
            <mxPoint x="525.8578643762689" y="154.14213562373106" as="sourcePoint" />
          </mxGeometry>
        </mxCell>
        <mxCell id="l8kK58O80P4qnYT1HE0h-64" style="edgeStyle=orthogonalEdgeStyle;rounded=0;orthogonalLoop=1;jettySize=auto;html=1;exitX=0.5;exitY=1;exitDx=0;exitDy=0;entryX=0.5;entryY=0;entryDx=0;entryDy=0;fontColor=#000000;" edge="1" parent="1" source="l8kK58O80P4qnYT1HE0h-84" target="l8kK58O80P4qnYT1HE0h-57">
          <mxGeometry relative="1" as="geometry">
            <mxPoint x="554.1421356237311" y="154.14213562373106" as="sourcePoint" />
          </mxGeometry>
        </mxCell>
        <mxCell id="l8kK58O80P4qnYT1HE0h-65" style="edgeStyle=orthogonalEdgeStyle;rounded=0;orthogonalLoop=1;jettySize=auto;html=1;exitX=0;exitY=1;exitDx=0;exitDy=0;entryX=0.5;entryY=0;entryDx=0;entryDy=0;fontColor=#000000;" edge="1" parent="1" source="l8kK58O80P4qnYT1HE0h-56" target="l8kK58O80P4qnYT1HE0h-58">
          <mxGeometry relative="1" as="geometry" />
        </mxCell>
        <mxCell id="l8kK58O80P4qnYT1HE0h-66" style="edgeStyle=orthogonalEdgeStyle;rounded=0;orthogonalLoop=1;jettySize=auto;html=1;exitX=1;exitY=1;exitDx=0;exitDy=0;entryX=0.5;entryY=0;entryDx=0;entryDy=0;fontColor=#000000;" edge="1" parent="1" source="l8kK58O80P4qnYT1HE0h-56" target="l8kK58O80P4qnYT1HE0h-59">
          <mxGeometry relative="1" as="geometry" />
        </mxCell>
        <mxCell id="l8kK58O80P4qnYT1HE0h-56" value="2" style="ellipse;whiteSpace=wrap;html=1;aspect=fixed;fontColor=#FFFFFF;fillColor=#FF0000;" vertex="1" parent="1">
          <mxGeometry x="440" y="160" width="40" height="40" as="geometry" />
        </mxCell>
        <mxCell id="l8kK58O80P4qnYT1HE0h-67" style="edgeStyle=orthogonalEdgeStyle;rounded=0;orthogonalLoop=1;jettySize=auto;html=1;exitX=0;exitY=1;exitDx=0;exitDy=0;entryX=0.5;entryY=0;entryDx=0;entryDy=0;fontColor=#000000;" edge="1" parent="1" source="l8kK58O80P4qnYT1HE0h-57" target="l8kK58O80P4qnYT1HE0h-60">
          <mxGeometry relative="1" as="geometry" />
        </mxCell>
        <mxCell id="l8kK58O80P4qnYT1HE0h-68" style="edgeStyle=orthogonalEdgeStyle;rounded=0;orthogonalLoop=1;jettySize=auto;html=1;exitX=1;exitY=1;exitDx=0;exitDy=0;entryX=0.5;entryY=0;entryDx=0;entryDy=0;fontColor=#000000;" edge="1" parent="1" source="l8kK58O80P4qnYT1HE0h-57" target="l8kK58O80P4qnYT1HE0h-61">
          <mxGeometry relative="1" as="geometry" />
        </mxCell>
        <mxCell id="l8kK58O80P4qnYT1HE0h-57" value="3" style="ellipse;whiteSpace=wrap;html=1;aspect=fixed;fontColor=#FFFFFF;fillColor=#000000;" vertex="1" parent="1">
          <mxGeometry x="600" y="160" width="40" height="40" as="geometry" />
        </mxCell>
        <mxCell id="l8kK58O80P4qnYT1HE0h-58" value="4" style="ellipse;whiteSpace=wrap;html=1;aspect=fixed;fontColor=#FFFFFF;fillColor=#000000;" vertex="1" parent="1">
          <mxGeometry x="400" y="220" width="40" height="40" as="geometry" />
        </mxCell>
        <mxCell id="l8kK58O80P4qnYT1HE0h-59" value="5" style="ellipse;whiteSpace=wrap;html=1;aspect=fixed;fontColor=#FFFFFF;fillColor=#000000;" vertex="1" parent="1">
          <mxGeometry x="490" y="220" width="40" height="40" as="geometry" />
        </mxCell>
        <mxCell id="l8kK58O80P4qnYT1HE0h-60" value="6" style="ellipse;whiteSpace=wrap;html=1;aspect=fixed;fontColor=#FFFFFF;fillColor=#FF0000;" vertex="1" parent="1">
          <mxGeometry x="560" y="220" width="40" height="40" as="geometry" />
        </mxCell>
        <mxCell id="l8kK58O80P4qnYT1HE0h-61" value="7" style="ellipse;whiteSpace=wrap;html=1;aspect=fixed;fontColor=#FFFFFF;fillColor=#FF0000;" vertex="1" parent="1">
          <mxGeometry x="640" y="220" width="40" height="40" as="geometry" />
        </mxCell>
        <mxCell id="l8kK58O80P4qnYT1HE0h-85" style="edgeStyle=orthogonalEdgeStyle;rounded=0;orthogonalLoop=1;jettySize=auto;html=1;exitX=0.5;exitY=1;exitDx=0;exitDy=0;entryX=0.5;entryY=0;entryDx=0;entryDy=0;fontColor=#FFFFFF;" edge="1" parent="1" source="l8kK58O80P4qnYT1HE0h-38" target="l8kK58O80P4qnYT1HE0h-48">
          <mxGeometry relative="1" as="geometry" />
        </mxCell>
      </root>
    </mxGraphModel>
  </diagram>
</mxfile>
